#!OML:ASF I:\Actors\actors\Patient Classification 1\Patient 1\Session 1\Subject1.ASF
:FULLY-SPECIFIED
:DEGREES
272
root 0.363912 17.6134 8.20081 10.0616 23.0233 -8.57803
lowerback 6.37425 7.32993 0.313552
upperback -10.1774 9.67394 -4.07827
thorax -13.9534 4.33125 -6.41472
lowerneck -12.9878 -12.7034 -8.49958
upperneck 7.13794 -17.5363 15.5972
head 6.47505 -7.79309 4.3809
rclavicle -1.65985e-014 -3.18055e-015
rhumerus 50.4853 -7.52685 -74.2706
rradius 42.4873
rwrist 47.1285
rhand -21.1079 -52.5046
rfingers 7.12502
rthumb 5.27013 -82.419
lclavicle -1.65985e-014 -3.18055e-015
lhumerus -35.1747 -10.0419 86.3658
lradius 55.9429
lwrist 3.72616
lhand -21.6796 -20.1638
lfingers 7.12502
lthumb 4.71817 9.76369
rfemur 2.65739 29.1535 25.9108
rtibia -2.39292
rfoot -37.7274 -46.581
rtoes 27.0498
lfemur -8.34374 -41.906 -6.09111
ltibia -3.29151
lfoot -1.78211 31.9763
ltoes -12.2391
273
root 0.364427 17.6141 8.20468 9.98697 22.9062 -8.58083
lowerback 6.40188 7.40001 0.240696
upperback -10.1444 9.76418 -4.02685
thorax -13.9453 4.38501 -6.33482
lowerneck -12.8774 -12.7944 -8.64509
upperneck 6.96948 -17.6394 15.7384
head 6.44383 -7.84952 4.43826
rclavicle -7.03201e-015 -7.15625e-014
rhumerus 50.2563 -7.84665 -74.2747
rradius 43.1989
rwrist 47.4153
rhand -21.8191 -53.3042
rfingers 7.12502
rthumb 4.58348 -83.2346
lclavicle -7.03201e-015 -7.15625e-014
lhumerus -35.2294 -10.0838 86.5065
lradius 55.9936
lwrist 2.98042
lhand -21.0486 -20.2109
lfingers 7.12502
lthumb 5.3274 9.70212
rfemur 2.69988 28.934 25.9149
rtibia -2.35567
rfoot -37.422 -46.3729
rtoes 26.9525
lfemur -8.1543 -41.977 -6.21724
ltibia -3.25572
lfoot -1.98237 32.1091
ltoes -11.5995
274
root 0.364932 17.6138 8.20789 9.98369 22.8244 -8.62607
lowerback 6.3791 7.45365 0.246628
upperback -10.117 9.84299 -3.9803
thorax -13.8986 4.42779 -6.29145
lowerneck -12.8204 -12.8747 -8.75229
upperneck 6.74103 -17.7168 15.8458
head 6.39282 -7.89455 4.4816
rclavicle -5.73494e-014 -2.06736e-014
rhumerus 50.3276 -8.23691 -74.3502
rradius 43.8445
rwrist 47.2455
rhand -22.6431 -53.9128
rfingers 7.12502
rthumb 3.78775 -83.8588
lclavicle -5.73494e-014 -2.06736e-014
lhumerus -35.2265 -9.97735 86.48
lradius 56.0775
lwrist 1.65058
lhand -19.9439 -20.0861
lfingers 7.12502
lthumb 6.39398 9.79742
rfemur 2.65968 28.8087 25.928
rtibia -2.34059
rfoot -37.2074 -46.2495
rtoes 26.9113
lfemur -8.11938 -42.1089 -6.18212
ltibia -3.22953
lfoot -2.11245 32.301
ltoes -11.2747
275
root 0.365414 17.6137 8.2091 10.0691 22.8265 -8.66011
lowerback 6.36193 7.43285 0.312987
upperback -10.1266 9.82966 -3.93436
thorax -13.8972 4.41802 -6.27237
lowerneck -12.7976 -12.906 -8.79724
upperneck 6.56295 -17.7318 15.8812
head 6.34258 -7.90909 4.50073
rclavicle 1.54853e-013 -1.59028e-015
rhumerus 50.7025 -8.59232 -74.6603
rradius 44.3396
rwrist 47.1057
rhand -23.4118 -54.2803
rfingers 7.12502
rthumb 3.04542 -84.2383
lclavicle 1.54853e-013 -1.59028e-015
lhumerus -35.3487 -9.89305 86.4647
lradius 56.3117
lwrist 1.11303
lhand -19.2187 -19.9763
lfingers 7.12502
lthumb 7.09402 9.88481
rfemur 2.55902 28.8297 25.9066
rtibia -2.37353
rfoot -37.0838 -46.3269
rtoes 26.7714
lfemur -8.27368 -42.2433 -6.03026
ltibia -3.20624
lfoot -2.10351 32.4514
ltoes -11.3351
276
root 0.367544 17.6142 8.20939 10.2126 22.8723 -8.70276
lowerback 6.35076 7.36175 0.463756
upperback -10.1767 9.76098 -3.88458
thorax -13.939 4.37113 -6.29161
lowerneck -12.7774 -12.916 -8.94798
upperneck 6.4557 -17.7216 15.9948
head 6.33002 -7.90615 4.56145
rclavicle 3.18055e-014 3.18055e-014
rhumerus 51.2847 -8.75597 -74.9131
rradius 44.5862
rwrist 47.1347
rhand -24.1765 -54.4141
rfingers 7.12502
rthumb 2.30693 -84.3814
lclavicle 3.18055e-014 3.18055e-014
lhumerus -35.6481 -10.0069 86.6033
lradius 56.6749
lwrist 1.90113
lhand -19.5865 -19.9921
lfingers 7.12502
lthumb 6.73903 9.8807
rfemur 2.39741 28.9155 25.8621
rtibia -2.41347
rfoot -37.0089 -46.4634
rtoes 26.3897
lfemur -8.53157 -42.4781 -5.78657
ltibia -3.19867
lfoot -2.07052 32.6874
ltoes -11.2123
277
root 0.369674 17.6152 8.20932 10.3198 22.9275 -8.76186
lowerback 6.39212 7.28458 0.654927
upperback -10.2329 9.68965 -3.83399
thorax -14.0149 4.31618 -6.34089
lowerneck -12.8769 -12.9168 -9.01548
upperneck 6.5137 -17.7156 16.0077
head 6.37153 -7.89639 4.56958
rclavicle -6.58226e-014 -2.06736e-014
rhumerus 51.833 -8.53837 -74.3309
rradius 44.6425
rwrist 46.9813
rhand -25.2678 -54.0851
rfingers 7.12502
rthumb 1.25289 -84.0611
lclavicle -6.58226e-014 -2.06736e-014
lhumerus -36.0286 -10.3065 86.8221
lradius 57.0658
lwrist 3.4051
lhand -20.6396 -20.1439
lfingers 7.12502
lthumb 5.72232 9.75884
rfemur 2.29387 29.073 25.8629
rtibia -2.4652
rfoot -37.2259 -46.5171
rtoes 26.4155
lfemur -8.70683 -42.7388 -5.5566
ltibia -3.27422
lfoot -2.01969 32.9752
ltoes -11.091
278
root 0.371443 17.6169 8.20814 10.4109 22.9642 -8.7565
lowerback 6.48215 7.20819 0.826096
upperback -10.272 9.61339 -3.8075
thorax -14.1012 4.25792 -6.41123
lowerneck -13.0434 -12.8714 -8.84113
upperneck 6.63638 -17.6569 15.7806
head 6.39041 -7.86501 4.47278
rclavicle -1.61264e-014 2.70347e-014
rhumerus 52.3061 -7.87999 -72.6353
rradius 44.4899
rwrist 47.05
rhand -26.4622 -52.5011
rfingers 7.12502
rthumb 0.0993355 -82.4808
lclavicle -1.61264e-014 2.70347e-014
lhumerus -36.3462 -10.4968 86.9001
lradius 57.327
lwrist 4.40388
lhand -21.309 -20.3621
lfingers 7.12502
lthumb 5.07598 9.55709
rfemur 2.28966 29.4079 25.8477
rtibia -2.55882
rfoot -37.815 -46.5859
rtoes 27.1291
lfemur -8.7923 -42.9827 -5.4524
ltibia -3.38542
lfoot -1.96996 33.2262
ltoes -11.0292
279
root 0.374897 17.618 8.20584 10.5597 22.9034 -8.68777
lowerback 6.56046 7.15787 0.997747
upperback -10.3278 9.56887 -3.823
thorax -14.1901 4.21173 -6.53304
lowerneck -13.0682 -12.803 -8.74079
upperneck 6.62077 -17.5582 15.6632
head 6.35604 -7.82246 4.43626
rclavicle -1.46629e-013 2.38542e-014
rhumerus 52.6974 -6.99913 -70.3015
rradius 44.0699
rwrist 48.2022
rhand -27.5922 -49.2092
rfingers 7.12502
rthumb -0.992081 -79.1867
lclavicle -1.46629e-013 2.38542e-014
lhumerus -36.5197 -10.3554 86.7627
lradius 57.343
lwrist 4.09238
lhand -21.2179 -20.302
lfingers 7.12502
lthumb 5.16393 9.61507
rfemur 2.21225 29.7539 25.7165
rtibia -2.61006
rfoot -38.2803 -46.6174
rtoes 27.6649
lfemur -8.90987 -43.2021 -5.42221
ltibia -3.43536
lfoot -1.88307 33.5115
ltoes -11.0453
280
root 0.377721 17.6179 8.20411 10.7037 22.7395 -8.64058
lowerback 6.63115 7.11748 1.14776
upperback -10.4077 9.53741 -3.8255
thorax -14.3087 4.17285 -6.63365
lowerneck -13.0898 -12.7173 -8.69887
upperneck 6.69444 -17.4499 15.6169
head 6.36116 -7.76856 4.43
rclavicle -9.21864e-014 1.59028e-015
rhumerus 52.9794 -6.04356 -67.6317
rradius 43.4579
rwrist 50.3614
rhand -28.8774 -45.4095
rfingers 7.12502
rthumb -2.23335 -75.3776
lclavicle -9.21864e-014 1.59028e-015
lhumerus -36.5911 -9.95526 86.4974
lradius 57.1312
lwrist 2.92521
lhand -20.768 -20.0571
lfingers 7.12502
lthumb 5.59835 9.8489
rfemur 2.03541 29.9133 25.5502
rtibia -2.57396
rfoot -38.279 -46.5504
rtoes 27.6498
lfemur -8.98546 -43.3346 -5.39179
ltibia -3.49846
lfoot -1.70056 33.8211
ltoes -11.1574
281
root 0.377461 17.6175 8.20488 10.8308 22.5399 -8.56943
lowerback 6.62361 7.08402 1.19588
upperback -10.4648 9.49588 -3.86094
thorax -14.363 4.14222 -6.69828
lowerneck -13.1748 -12.6308 -8.43675
upperneck 6.87481 -17.3782 15.4878
head 6.38716 -7.72402 4.35604
rclavicle -1.15047e-014 -4.13472e-014
rhumerus 53.2421 -5.26302 -65.0637
rradius 42.6653
rwrist 52.9986
rhand -29.8586 -43.0545
rfingers 7.12502
rthumb -3.18092 -73.0106
lclavicle -1.15047e-014 -4.13472e-014
lhumerus -36.5692 -9.75753 86.2182
lradius 56.8073
lwrist 2.09824
lhand -20.3498 -20.1166
lfingers 7.12502
lthumb 6.00211 9.77834
rfemur 1.8857 30.0484 25.3907
rtibia -2.52717
rfoot -38.2236 -46.484
rtoes 27.6634
lfemur -9.00352 -43.4509 -5.40403
ltibia -3.55654
lfoot -1.73267 34.1472
ltoes -10.8969
282
root 0.375506 17.6175 8.20941 10.938 22.3609 -8.4354
lowerback 6.5506 7.08131 1.15157
upperback -10.5 9.47159 -3.98567
thorax -14.3471 4.12855 -6.80035
lowerneck -13.2464 -12.5817 -7.98921
upperneck 7.07014 -17.3904 15.3336
head 6.40717 -7.71581 4.23581
rclavicle -1.02374e-013 -4.6118e-014
rhumerus 53.4543 -4.9256 -63.3346
rradius 41.6544
rwrist 55.6566
rhand -30.0809 -43.112
rfingers 7.12502
rthumb -3.39563 -73.0647
lclavicle -1.02374e-013 -4.6118e-014
lhumerus -36.4627 -9.93079 86.004
lradius 56.4747
lwrist 1.96363
lhand -20.0721 -20.3434
lfingers 7.12502
lthumb 6.2702 9.54377
rfemur 1.86108 30.3052 25.2516
rtibia -2.52173
rfoot -38.4063 -46.513
rtoes 27.8715
lfemur -8.9562 -43.6224 -5.53257
ltibia -3.57893
lfoot -1.95642 34.5009
ltoes -10.5433
283
root 0.372308 17.6166 8.21712 10.9403 22.265 -8.3437
lowerback 6.51433 7.06633 1.09925
upperback -10.5224 9.43183 -4.08707
thorax -14.3463 4.10856 -6.87486
lowerneck -13.2975 -12.5605 -7.62729
upperneck 7.35441 -17.4442 15.1977
head 6.46602 -7.72556 4.12704
rclavicle -7.05686e-015 5.40694e-014
rhumerus 53.6282 -5.02919 -62.8477
rradius 40.8455
rwrist 56.4886
rhand -29.545 -44.398
rfingers 7.12502
rthumb -2.87807 -74.3583
lclavicle -7.05686e-015 5.40694e-014
lhumerus -36.3182 -10.1262 85.8745
lradius 56.1537
lwrist 2.08006
lhand -20.0894 -20.4398
lfingers 7.12502
lthumb 6.25348 9.44789
rfemur 2.00222 30.616 25.2655
rtibia -2.54675
rfoot -38.7706 -46.6422
rtoes 28.0261
lfemur -8.7795 -43.6836 -5.71402
ltibia -3.63546
lfoot -2.03398 34.6439
ltoes -10.5903
284
root 0.368456 17.6154 8.22498 10.8633 22.2686 -8.29691
lowerback 6.50465 7.01351 1.02222
upperback -10.5238 9.34568 -4.10845
thorax -14.3601 4.07331 -6.84281
lowerneck -13.2671 -12.5526 -7.52412
upperneck 7.60511 -17.4933 15.2117
head 6.53856 -7.73551 4.1069
rclavicle 7.89672e-014 0
rhumerus 53.7946 -5.52046 -63.6805
rradius 40.4422
rwrist 55.209
rhand -28.4461 -46.1266
rfingers 7.12502
rthumb -1.81677 -76.0986
lclavicle 7.89672e-014 0
lhumerus -36.1903 -10.2457 85.814
lradius 55.9384
lwrist 2.14046
lhand -20.2932 -20.3756
lfingers 7.12502
lthumb 6.05674 9.51778
rfemur 2.22337 30.8432 25.3827
rtibia -2.57758
rfoot -39.1355 -46.7985
rtoes 27.9656
lfemur -8.57654 -43.4516 -5.89504
ltibia -3.69419
lfoot -1.97713 34.3794
ltoes -10.8937
285
root 0.365213 17.6149 8.23166 10.7628 22.362 -8.2542
lowerback 6.49063 6.9569 0.918064
upperback -10.4932 9.25682 -4.07103
thorax -14.3474 4.04542 -6.72587
lowerneck -13.1835 -12.584 -7.64315
upperneck 7.72969 -17.5595 15.344
head 6.59622 -7.76016 4.15724
rclavicle 1.3418e-014 -2.54444e-014
rhumerus 54.0342 -6.59933 -65.9633
rradius 40.3094
rwrist 53.0379
rhand -27.4366 -47.8916
rfingers 7.12502
rthumb -0.841817 -77.8697
lclavicle 1.3418e-014 -2.54444e-014
lhumerus -36.1133 -10.3944 85.8777
lradius 55.9103
lwrist 2.11506
lhand -20.4329 -20.2227
lfingers 7.12502
lthumb 5.9219 9.67454
rfemur 2.4245 30.8465 25.4879
rtibia -2.59527
rfoot -39.251 -46.9126
rtoes 27.7272
lfemur -8.47563 -42.9733 -6.06343
ltibia -3.64367
lfoot -1.89361 33.7728
ltoes -11.2446
